<?xml version="1.0" encoding="UTF-8"?>
<svg id="Layer_1" xmlns="http://www.w3.org/2000/svg" version="1.1" viewBox="0 0 24 24">
  <!-- Generator: Adobe Illustrator 29.1.0, SVG Export Plug-In . SVG Version: 2.1.0 Build 142)  -->
  <defs>
    <style>
      .st0 {
        fill: #f5ead8;
      }
    </style>
  </defs>
  <path class="st0" d="M12,.3C5.4.3,0,5.7,0,12.3s3.4,9.8,8.2,11.4c.6.1.8-.3.8-.6s0-1,0-2c-3.3.7-4-1.6-4-1.6-.5-1.4-1.3-1.8-1.3-1.8-1.1-.7,0-.7,0-.7,1.2,0,1.8,1.2,1.8,1.2,1.1,1.8,2.8,1.3,3.5,1,.1-.8.4-1.3.8-1.6-2.7-.3-5.5-1.3-5.5-5.9s.5-2.4,1.2-3.2c-.1-.3-.5-1.5.1-3.2,0,0,1-.3,3.3,1.2,1-.3,2-.4,3-.4,1,0,2,.1,3,.4,2.3-1.6,3.3-1.2,3.3-1.2.6,1.7.2,2.9.1,3.2.8.8,1.2,1.9,1.2,3.2,0,4.6-2.8,5.6-5.5,5.9.4.4.8,1.1.8,2.2,0,1.6,0,2.9,0,3.3s.2.7.8.6c4.8-1.6,8.2-6.1,8.2-11.4S18.6.3,12,.3"/>
</svg>