<?xml version="1.0" encoding="UTF-8"?>
<svg id="Layer_1" xmlns="http://www.w3.org/2000/svg" version="1.1" viewBox="0 0 24 24">
  <!-- Generator: Adobe Illustrator 29.1.0, SVG Export Plug-In . SVG Version: 2.1.0 Build 142)  -->
  <defs>
    <style>
      .st0 {
        fill: #f5ead8;
      }
    </style>
  </defs>
  <path class="st0" d="M12,1.1C6.3,1.1,1.6,5.8,1.6,11.5s.2,2.2.5,3.2c0-.2.2-.4.4-.6.2,0,.3-.2.5-.1.3,0,.6.1.8.3.3.2.5.4.7.7.2.3.5.6.7,1h0c0-.3.1-.6.3-.9s.4-.5.8-.5c.3,0,.6,0,.8.2s.3.3.4.5c.2.3.2.5.2.5,0,0,.7,1.6,1.7,2.5.6.6,1,1.2,1.1,1.9,0,.5,0,1.1-.4,1.6.6.1,1.3.2,2,.2s1.3,0,1.9-.2c-.3-.5-.4-1-.4-1.6,0-.7.5-1.3,1.1-1.9,1-1,1.6-2.5,1.7-2.5,0,0,0-.3.2-.5,0-.2.2-.3.4-.5.2-.2.5-.2.8-.2.4,0,.6.3.8.5s.2.6.3.9h0c.2-.3.5-.7.7-.9.2-.3.4-.5.7-.7.3-.2.5-.3.8-.3.2,0,.4,0,.5.2.2.1.4.4.4.6h0c.4-1,.5-2.1.5-3.2,0-5.7-4.7-10.4-10.4-10.4M8.3,6.6c.2,0,.5,0,.7.2.7.4,1,1.3.6,2,0,0,0,0,0,0-.2.3-.8-.2-1.1,0-.4.1-.5.9-.9.7-.7-.4-1-1.3-.6-2,.3-.5.8-.8,1.3-.8M15.8,6.6c.8,0,1.5.7,1.5,1.5,0,.6-.3,1.1-.8,1.3-.4.2-.5-.6-.9-.7-.3-.1-.9.4-1.1,0-.4-.7-.1-1.6.6-2,0,0,0,0,0,0,.2-.1.5-.2.7-.2M5.1,8.1c.5,0,1,.4,1,1s-.4,1-1,1-1-.4-1-1,.4-1,1-1M19,8.1c.5,0,1,.4,1,1s-.4,1-1,1-1-.4-1-1,.4-1,1-1M8.5,11.5c.6,0,2,1.2,3.6,1.2,1.6,0,3-1.2,3.6-1.2.2,0,.3.1.3.5,0,.9-.4,2.3-1.6,3.2-.2-.8-1.4-1.4-1.6-1.3,0,0,0,0,0,0h0s0,0,0,0h0s0,0,0,0h0c0,0,0,0,0,.1h0c0,0,0,.1-.1.2,0,0,0,0,0,.1,0,0-.1.1-.2.2,0,0,0,0,0,0,0,0-.2-.2-.3-.2,0,0,0,0,0-.1-.1-.2-.2-.4-.3-.4,0,0-.1,0-.2,0,0,0-.1,0-.2,0,0,0,0,0-.1,0h-.1c0,.1,0,.1-.1.2,0,0,0,0-.1,0,0,0-.2.1-.3.2,0,0,0,0-.1.1,0,0,0,0-.1.1h0s0,0,0,.1h0c0,0,0,.1-.1.2,0,0,0,0,0,0-1.1-.9-1.6-2.3-1.6-3.2s.1-.5.3-.5M9.3,21.8c.8-1.2.8-2.1-.4-3.2-1.1-1.1-1.8-2.7-1.8-2.7,0,0-.2-.9-.8-.9s-1,1.5.2,2.4c1.2.9-.2,1.5-.7.6-.4-.8-1.7-2.9-2.3-3.3s-1.1-.2-.9.6c.2.8,2.8,2.8,2.6,3.2s-1.2-.5-1.2-.5c0,0-2.9-2.6-3.5-1.9s.5,1.2,2,2.2c1.6.9,1.7,1.2,1.5,1.5S.3,17.4,0,18.6c-.3,1.2,3.5,1.6,3.3,2.4-.2.8-2.7-1.6-3.2-.6-.5.9,3.5,2.1,3.5,2.1,1.3.3,4.6,1,5.7-.6M14.7,21.8c-.8-1.2-.8-2.1.4-3.2,1.1-1.1,1.8-2.7,1.8-2.7,0,0,.2-.9.8-.9s1,1.5-.2,2.4c-1.2.9.2,1.5.7.6.5-.8,1.7-2.9,2.3-3.3s1.1-.2.9.6c-.2.8-2.8,2.8-2.6,3.2s1.2-.5,1.2-.5c0,0,2.9-2.6,3.5-1.9s-.5,1.2-2,2.2c-1.6.9-1.7,1.2-1.5,1.5s3.7-2.5,4-1.3c.3,1.2-3.5,1.6-3.3,2.4.2.8,2.7-1.6,3.2-.6.5.9-3.5,2.1-3.5,2.1-1.3.3-4.6,1-5.7-.6"/>
</svg>