<?xml version="1.0" encoding="UTF-8"?>
<svg id="Layer_1" xmlns="http://www.w3.org/2000/svg" version="1.1" viewBox="0 0 24 24">
  <!-- Generator: Adobe Illustrator 29.1.0, SVG Export Plug-In . SVG Version: 2.1.0 Build 142)  -->
  <defs>
    <style>
      .st0 {
        fill: #f5ead8;
      }
    </style>
  </defs>
  <path class="st0" d="M.1,7.3C0,7.3,0,7.4,0,7.4v6.8c0,0,0,.1.1.1h.7c0,0,.1,0,.1-.1v-1.5l.4-.4,1.5,1.9s0,0,.1,0h.9s0,0,0,0c0,0,0,0,0-.1l-2-2.5,1.9-1.8s0,0,0,0c0,0,0,0,0,0h-.9s0,0-.1,0l-1.8,1.8v-4.2c0,0,0-.1-.1-.1H.1ZM18.1,7.3c0,0-.1,0-.1.1v6.8c0,0,0,.1.1.1h.7c0,0,.1,0,.1-.1v-6.8c0,0,0-.1-.1-.1h-.7ZM6,9.6c-.6,0-1.1.2-1.6.5,0,0,0,.1,0,.1l.4.5s0,0,.1,0c.4-.3.8-.4,1.2-.4s.5,0,.7.3c.2.2.2.4.2.6-.7,0-1.2.1-1.5.2-.8.2-1.2.7-1.2,1.4s.2.8.5,1c.3.3.7.4,1.1.4s.9-.1,1.2-.3h0c0,.2,0,.2.1.2h.7c0,0,.1,0,.1-.1v-2.8c0-.7-.2-1.1-.7-1.4-.3-.2-.7-.3-1.1-.3ZM10.3,9.6c-.7,0-1.2.3-1.6.8-.3.4-.5,1-.5,1.6s.2,1.2.5,1.6c.4.5.9.7,1.6.7s1-.1,1.3-.4v.5c0,.9-.4,1.3-1.2,1.3s-.7-.2-1.1-.6c0,0,0,0,0,0,0,0,0,0,0,0l-.5.5c0,0,0,.1,0,.2.1.1.3.2.4.3.1,0,.2.1.3.2.4.2.7.3,1.1.3.7,0,1.2-.2,1.6-.6.4-.4.6-.9.6-1.7v-4.6c0,0,0-.1-.1-.1h-.7c0,0-.1,0-.1.1v.2c-.3-.3-.8-.4-1.3-.4h0ZM15.1,9.6c-.7,0-1.2.3-1.6.8-.3.4-.5,1-.5,1.6s.2,1.2.5,1.6c.4.5.9.7,1.6.7s1-.1,1.3-.4v.5c0,.9-.4,1.3-1.2,1.3s-.7-.2-1.1-.6c0,0,0,0,0,0,0,0,0,0,0,0l-.5.5c0,0,0,.1,0,.2.1.1.3.2.4.3.1,0,.2.1.3.2.4.2.7.3,1.1.3.7,0,1.2-.2,1.6-.6.4-.4.6-.9.6-1.7v-4.6c0,0,0-.1-.1-.1h-.7c0,0-.1,0-.1.1v.2c-.3-.3-.8-.4-1.3-.4h0ZM21.8,9.6c-.7,0-1.2.2-1.6.6-.4.5-.7,1-.7,1.7s.2,1.3.7,1.7c.5.5,1,.7,1.7.7s1.2-.2,1.7-.6c0,0,0,0,0-.1l-.5-.5s0,0-.2,0c-.3.2-.6.3-1,.3s-.8-.1-1.1-.4c-.2-.2-.4-.5-.4-.8h3.3c0,0,.1,0,.1-.1v-.2c0-.7-.2-1.3-.6-1.7-.4-.4-.9-.7-1.6-.7h0ZM21.8,10.4c.3,0,.6.1.8.3.2.2.4.5.4.8h-2.5c0-.3.2-.6.4-.8.2-.2.5-.3.8-.3ZM10.4,10.5c.6,0,1,.2,1.2.7v1.7c-.2.4-.6.7-1.2.7s-.6,0-.8-.3c-.3-.3-.4-.7-.4-1.2,0-1,.4-1.5,1.2-1.5ZM15.2,10.5c.6,0,1,.2,1.2.7h0v1.7c-.2.4-.6.7-1.2.7s-.6,0-.8-.3c-.3-.3-.4-.7-.4-1.2,0-1,.4-1.5,1.2-1.5ZM6.8,12.2v1c-.3.3-.7.4-1.1.4-.2,0-.3,0-.4-.2-.1,0-.2-.2-.2-.4,0-.3.1-.5.4-.6.2-.1.7-.2,1.4-.3Z"/>
</svg>